  0
SECTION
  2
HEADER
  9
$ACADVER
  1
AC1009
  9
$DWGCODEPAGE
  3
ansi_1252
  9
$INSBASE
 10
0.0
 20
0.0
 30
0.0
  9
$EXTMIN
 10
7.222123709068541
 20
16.51922498250462
 30
0.0
  9
$EXTMAX
 10
613.5834006432424
 20
345.4645127598659
 30
0.0
  9
$LIMMIN
 10
0.0
 20
0.0
  9
$LIMMAX
 10
12.0
 20
9.0
  9
$ORTHOMODE
 70
     0
  9
$REGENMODE
 70
     1
  9
$FILLMODE
 70
     1
  9
$QTEXTMODE
 70
     0
  9
$MIRRTEXT
 70
     1
  9
$DRAGMODE
 70
     2
  9
$LTSCALE
 40
1.0
  9
$OSMODE
 70
    37
  9
$ATTMODE
 70
     1
  9
$TEXTSIZE
 40
0.2
  9
$TRACEWID
 40
0.05
  9
$TEXTSTYLE
  7
STANDARD
  9
$CLAYER
  8
0
  9
$CELTYPE
  6
BYLAYER
  9
$CECOLOR
 62
   256
  9
$DIMSCALE
 40
1.0
  9
$DIMASZ
 40
0.18
  9
$DIMEXO
 40
0.0625
  9
$DIMDLI
 40
0.38
  9
$DIMRND
 40
0.0
  9
$DIMDLE
 40
0.0
  9
$DIMEXE
 40
0.18
  9
$DIMTP
 40
0.0
  9
$DIMTM
 40
0.0
  9
$DIMTXT
 40
0.18
  9
$DIMCEN
 40
0.09
  9
$DIMTSZ
 40
0.0
  9
$DIMTOL
 70
     0
  9
$DIMLIM
 70
     0
  9
$DIMTIH
 70
     1
  9
$DIMTOH
 70
     1
  9
$DIMSE1
 70
     0
  9
$DIMSE2
 70
     0
  9
$DIMTAD
 70
     0
  9
$DIMZIN
 70
     0
  9
$DIMBLK
  1

  9
$DIMASO
 70
     1
  9
$DIMSHO
 70
     1
  9
$DIMPOST
  1

  9
$DIMAPOST
  1

  9
$DIMALT
 70
     0
  9
$DIMALTD
 70
     2
  9
$DIMALTF
 40
25.4
  9
$DIMLFAC
 40
1.0
  9
$DIMTOFL
 70
     0
  9
$DIMTVP
 40
0.0
  9
$DIMTIX
 70
     0
  9
$DIMSOXD
 70
     0
  9
$DIMSAH
 70
     0
  9
$DIMBLK1
  1

  9
$DIMBLK2
  1

  9
$DIMSTYLE
  2
STANDARD
  9
$DIMCLRD
 70
     0
  9
$DIMCLRE
 70
     0
  9
$DIMCLRT
 70
     0
  9
$DIMTFAC
 40
1.0
  9
$DIMGAP
 40
0.09
  9
$LUNITS
 70
     2
  9
$LUPREC
 70
     4
  9
$SKETCHINC
 40
0.1
  9
$FILLETRAD
 40
0.5
  9
$AUNITS
 70
     0
  9
$AUPREC
 70
     0
  9
$MENU
  1
.
  9
$ELEVATION
 40
0.0
  9
$PELEVATION
 40
0.0
  9
$THICKNESS
 40
0.0
  9
$LIMCHECK
 70
     0
  9
$CHAMFERA
 40
0.0
  9
$CHAMFERB
 40
0.0
  9
$SKPOLY
 70
     0
  9
$TDCREATE
 40
2454910.5
  9
$TDUPDATE
 40
2458369.523903611
  9
$TDINDWG
 40
0.0000000116
  9
$TDUSRTIMER
 40
0.0000000116
  9
$USRTIMER
 70
     1
  9
$ANGBASE
 50
0.0
  9
$ANGDIR
 70
     0
  9
$PDMODE
 70
     0
  9
$PDSIZE
 40
0.0
  9
$PLINEWID
 40
0.0
  9
$COORDS
 70
     1
  9
$SPLFRAME
 70
     0
  9
$SPLINETYPE
 70
     6
  9
$SPLINESEGS
 70
     8
  9
$ATTDIA
 70
     0
  9
$ATTREQ
 70
     1
  9
$HANDLING
 70
     1
  9
$HANDSEED
  5
313
  9
$SURFTAB1
 70
     6
  9
$SURFTAB2
 70
     6
  9
$SURFTYPE
 70
     6
  9
$SURFU
 70
     6
  9
$SURFV
 70
     6
  9
$UCSNAME
  2

  9
$UCSORG
 10
0.0
 20
0.0
 30
0.0
  9
$UCSXDIR
 10
1.0
 20
0.0
 30
0.0
  9
$UCSYDIR
 10
0.0
 20
1.0
 30
0.0
  9
$PUCSNAME
  2

  9
$PUCSORG
 10
0.0
 20
0.0
 30
0.0
  9
$PUCSXDIR
 10
1.0
 20
0.0
 30
0.0
  9
$PUCSYDIR
 10
0.0
 20
1.0
 30
0.0
  9
$USERI1
 70
     0
  9
$USERI2
 70
     0
  9
$USERI3
 70
     0
  9
$USERI4
 70
     0
  9
$USERI5
 70
     0
  9
$USERR1
 40
0.0
  9
$USERR2
 40
0.0
  9
$USERR3
 40
0.0
  9
$USERR4
 40
0.0
  9
$USERR5
 40
0.0
  9
$WORLDVIEW
 70
     1
  9
$SHADEDGE
 70
     3
  9
$SHADEDIF
 70
    70
  9
$TILEMODE
 70
     1
  9
$MAXACTVP
 70
    64
  9
$PLIMCHECK
 70
     0
  9
$PEXTMIN
 10
1.000000000000000E+20
 20
1.000000000000000E+20
 30
1.000000000000000E+20
  9
$PEXTMAX
 10
-1.000000000000000E+20
 20
-1.000000000000000E+20
 30
-1.000000000000000E+20
  9
$PLIMMIN
 10
0.0
 20
0.0
  9
$PLIMMAX
 10
12.0
 20
9.0
  9
$UNITMODE
 70
     0
  9
$VISRETAIN
 70
     1
  9
$PLINEGEN
 70
     0
  9
$PSLTSCALE
 70
     1
  0
ENDSEC
  0
SECTION
  2
TABLES
  0
TABLE
  2
VPORT
 70
     1
  0
VPORT
  2
*ACTIVE
 70
     0
 10
0.0
 20
0.0
 11
1.0
 21
1.0
 12
10.42990654205607
 22
4.5
 13
0.0
 23
0.0
 14
0.5
 24
0.5
 15
0.5
 25
0.5
 16
0.0
 26
0.0
 36
1.0
 17
0.0
 27
0.0
 37
0.0
 40
9.0
 41
1.972972972850329
 42
50.0
 43
0.0
 44
0.0
 50
0.0
 51
0.0
 71
     0
 72
   100
 73
     1
 74
     3
 75
     0
 76
     0
 77
     0
 78
     0
  0
ENDTAB
  0
TABLE
  2
LTYPE
 70
     2
  0
LTYPE
  2
CONTINUOUS
 70
     0
  3
Solid line
 72
    65
 73
     0
 40
0.0
  0
LTYPE
  2
CONTINUOUS2
 70
     0
  3
Solid Line
 72
    65
 73
     0
 40
0.0
  0
ENDTAB
  0
TABLE
  2
LAYER
 70
     2
  0
LAYER
  2
0
 70
     0
 62
     7
  6
CONTINUOUS
  0
LAYER
  2
PROFILEEDGES
 70
     0
 62
    18
  6
CONTINUOUS
  0
ENDTAB
  0
TABLE
  2
STYLE
 70
     1
  0
STYLE
  2
STANDARD
 70
     0
 40
0.0
 41
1.0
 50
0.0
 71
     0
 42
0.2
  3
txt
  4

  0
ENDTAB
  0
TABLE
  2
VIEW
 70
     0
  0
ENDTAB
  0
TABLE
  2
UCS
 70
     0
  0
ENDTAB
  0
TABLE
  2
APPID
 70
     1
  0
APPID
  2
ACAD
 70
     0
  0
ENDTAB
  0
TABLE
  2
DIMSTYLE
 70
     1
  0
DIMSTYLE
  2
STANDARD
 70
     0
  3

  4

  5

  6

  7

 40
1.0
 41
0.18
 42
0.0625
 43
0.38
 44
0.18
 45
0.0
 46
0.0
 47
0.0
 48
0.0
140
0.18
141
0.09
142
0.0
143
25.4
144
1.0
145
0.0
146
1.0
147
0.09
 71
     0
 72
     0
 73
     1
 74
     1
 75
     0
 76
     0
 77
     0
 78
     0
170
     0
171
     2
172
     0
173
     0
174
     0
175
     0
176
     0
177
     0
178
     0
  0
ENDTAB
  0
ENDSEC
  0
SECTION
  2
BLOCKS
  0
BLOCK
  8
0
  2
$MODEL_SPACE
 70
     0
 10
0.0
 20
0.0
 30
0.0
  3
$MODEL_SPACE
  1

  0
ENDBLK
  5
21
  8
0
  0
BLOCK
 67
     1
  8
0
  2
$PAPER_SPACE
 70
     0
 10
0.0
 20
0.0
 30
0.0
  3
$PAPER_SPACE
  1

  0
ENDBLK
  5
1D
 67
     1
  8
0
  0
ENDSEC
  0
SECTION
  2
ENTITIES
  0
POLYLINE
  5
70
  8
PROFILEEDGES
 66
     1
 10
0.0
 20
0.0
 30
0.0
 70
     1
  0
VERTEX
  5
97
  8
PROFILEEDGES
 10
574.3106814213997
 20
339.7115734322082
 30
0.0
  0
VERTEX
  5
98
  8
PROFILEEDGES
 10
568.6108163652016
 20
339.711573432208
 30
0.0
  0
VERTEX
  5
99
  8
PROFILEEDGES
 10
568.6108163652016
 20
329.7118101757198
 30
0.0
  0
VERTEX
  5
9A
  8
PROFILEEDGES
 10
574.3106814213997
 20
329.7118101757198
 30
0.0
  0
SEQEND
  5
2F3
  8
PROFILEEDGES
  0
POLYLINE
  5
71
  8
PROFILEEDGES
 66
     1
 10
0.0
 20
0.0
 30
0.0
 70
     1
  0
VERTEX
  5
9B
  8
PROFILEEDGES
 10
574.3106814214016
 20
31.718865132367
 30
0.0
  0
VERTEX
  5
9C
  8
PROFILEEDGES
 10
568.6108163652034
 20
31.718865132367
 30
0.0
  0
VERTEX
  5
9D
  8
PROFILEEDGES
 10
568.6108163652034
 20
21.71910187587881
 30
0.0
  0
VERTEX
  5
9E
  8
PROFILEEDGES
 10
574.3106814214018
 20
21.71910187587881
 30
0.0
  0
SEQEND
  5
2F4
  8
PROFILEEDGES
  0
POLYLINE
  5
72
  8
PROFILEEDGES
 66
     1
 10
0.0
 20
0.0
 30
0.0
 70
     1
  0
VERTEX
  5
9F
  8
PROFILEEDGES
 10
574.3106814214009
 20
195.5660933891412
 30
0.0
  0
VERTEX
  5
A0
  8
PROFILEEDGES
 10
568.6108163652025
 20
195.5660933891412
 30
0.0
  0
VERTEX
  5
A1
  8
PROFILEEDGES
 10
568.6108163652025
 20
185.566330132653
 30
0.0
  0
VERTEX
  5
A2
  8
PROFILEEDGES
 10
574.3106814214009
 20
185.566330132653
 30
0.0
  0
SEQEND
  5
2F5
  8
PROFILEEDGES
  0
POLYLINE
  5
73
  8
PROFILEEDGES
 66
     1
 10
0.0
 20
0.0
 30
0.0
 70
     1
  0
VERTEX
  5
A3
  8
PROFILEEDGES
 10
192.8962383806174
 20
25.7602689356651
 30
0.0
  0
VERTEX
  5
A4
  8
PROFILEEDGES
 10
192.8962383806167
 20
31.4601339918629
 30
0.0
  0
VERTEX
  5
A5
  8
PROFILEEDGES
 10
202.8960016371048
 20
31.46013399186427
 30
0.0
  0
VERTEX
  5
A6
  8
PROFILEEDGES
 10
202.8960016371056
 20
25.76026893566618
 30
0.0
  0
SEQEND
  5
2F6
  8
PROFILEEDGES
  0
POLYLINE
  5
74
  8
PROFILEEDGES
 66
     1
 10
0.0
 20
0.0
 30
0.0
 70
     1
  0
VERTEX
  5
A7
  8
PROFILEEDGES
 10
356.7434666373904
 20
25.76026893566458
 30
0.0
  0
VERTEX
  5
A8
  8
PROFILEEDGES
 10
356.7434666373902
 20
31.46013399186302
 30
0.0
  0
VERTEX
  5
A9
  8
PROFILEEDGES
 10
366.7432298938785
 20
31.46013399186336
 30
0.0
  0
VERTEX
  5
AA
  8
PROFILEEDGES
 10
366.7432298938788
 20
25.76026893566527
 30
0.0
  0
SEQEND
  5
2F7
  8
PROFILEEDGES
  0
POLYLINE
  5
75
  8
PROFILEEDGES
 66
     1
 10
0.0
 20
0.0
 30
0.0
 70
     1
  0
VERTEX
  5
AB
  8
PROFILEEDGES
 10
48.75075833755153
 20
25.76026893566441
 30
0.0
  0
VERTEX
  5
AC
  8
PROFILEEDGES
 10
48.75075833755079
 20
31.4601339918629
 30
0.0
  0
VERTEX
  5
AD
  8
PROFILEEDGES
 10
58.75052159403884
 20
31.46013399186302
 30
0.0
  0
VERTEX
  5
AE
  8
PROFILEEDGES
 10
58.75052159403958
 20
25.76026893566458
 30
0.0
  0
SEQEND
  5
2F8
  8
PROFILEEDGES
  0
POLYLINE
  5
76
  8
PROFILEEDGES
 66
     1
 10
0.0
 20
0.0
 30
0.0
 70
     1
  0
VERTEX
  5
AF
  8
PROFILEEDGES
 10
298.6327433338528
 20
86.49020200976236
 30
0.0
  0
VERTEX
  5
B0
  8
PROFILEEDGES
 10
298.8870071103369
 20
86.15883900485414
 30
0.0
  0
VERTEX
  5
B1
  8
PROFILEEDGES
 10
299.0468440022204
 20
85.77295861270215
 30
0.0
  0
VERTEX
  5
B2
  8
PROFILEEDGES
 10
299.1013613894636
 20
85.35885794433489
 30
0.0
  0
VERTEX
  5
B3
  8
PROFILEEDGES
 10
299.0468440022204
 20
84.9447572759675
 30
0.0
  0
VERTEX
  5
B4
  8
PROFILEEDGES
 10
298.8870071103369
 20
84.55887688381597
 30
0.0
  0
VERTEX
  5
B5
  8
PROFILEEDGES
 10
298.6327433338532
 20
84.22751387890696
 30
0.0
  0
VERTEX
  5
B6
  8
PROFILEEDGES
 10
298.3013803289445
 20
83.97325010242287
 30
0.0
  0
VERTEX
  5
B7
  8
PROFILEEDGES
 10
297.9154999367926
 20
83.8134132105397
 30
0.0
  0
VERTEX
  5
B8
  8
PROFILEEDGES
 10
297.5013992684254
 20
83.75889582329637
 30
0.0
  0
VERTEX
  5
B9
  8
PROFILEEDGES
 10
297.087298600058
 20
83.81341321054003
 30
0.0
  0
VERTEX
  5
BA
  8
PROFILEEDGES
 10
296.7014182079062
 20
83.97325010242321
 30
0.0
  0
VERTEX
  5
BB
  8
PROFILEEDGES
 10
296.3700552029975
 20
84.2275138789073
 30
0.0
  0
VERTEX
  5
BC
  8
PROFILEEDGES
 10
296.1157914265132
 20
84.55887688381563
 30
0.0
  0
VERTEX
  5
BD
  8
PROFILEEDGES
 10
295.9559545346305
 20
84.9447572759675
 30
0.0
  0
VERTEX
  5
BE
  8
PROFILEEDGES
 10
295.9014371473873
 20
85.35885794433489
 30
0.0
  0
VERTEX
  5
BF
  8
PROFILEEDGES
 10
295.9559545346305
 20
85.77295861270215
 30
0.0
  0
VERTEX
  5
C0
  8
PROFILEEDGES
 10
296.1157914265136
 20
86.15883900485369
 30
0.0
  0
VERTEX
  5
C1
  8
PROFILEEDGES
 10
296.3700552029978
 20
86.49020200976202
 30
0.0
  0
VERTEX
  5
C2
  8
PROFILEEDGES
 10
296.7014182079064
 20
86.74446578624622
 30
0.0
  0
VERTEX
  5
C3
  8
PROFILEEDGES
 10
297.087298600058
 20
86.90430267812974
 30
0.0
  0
VERTEX
  5
C4
  8
PROFILEEDGES
 10
297.5013992684254
 20
86.95882006537306
 30
0.0
  0
VERTEX
  5
C5
  8
PROFILEEDGES
 10
297.9154999367926
 20
86.90430267812974
 30
0.0
  0
VERTEX
  5
C6
  8
PROFILEEDGES
 10
298.3013803289445
 20
86.74446578624656
 30
0.0
  0
SEQEND
  5
2F9
  8
PROFILEEDGES
  0
POLYLINE
  5
77
  8
PROFILEEDGES
 66
     1
 10
0.0
 20
0.0
 30
0.0
 70
     1
  0
VERTEX
  5
C7
  8
PROFILEEDGES
 10
119.9916809162066
 20
84.55887688381631
 30
0.0
  0
VERTEX
  5
C8
  8
PROFILEEDGES
 10
119.7374171397225
 20
84.22751387890764
 30
0.0
  0
VERTEX
  5
C9
  8
PROFILEEDGES
 10
119.4060541348142
 20
83.97325010242321
 30
0.0
  0
VERTEX
  5
CA
  8
PROFILEEDGES
 10
119.0201737426619
 20
83.81341321054003
 30
0.0
  0
VERTEX
  5
CB
  8
PROFILEEDGES
 10
118.6060730742946
 20
83.75889582329751
 30
0.0
  0
VERTEX
  5
CC
  8
PROFILEEDGES
 10
118.1919724059273
 20
83.81341321054072
 30
0.0
  0
VERTEX
  5
CD
  8
PROFILEEDGES
 10
117.8060920137757
 20
83.97325010242355
 30
0.0
  0
VERTEX
  5
CE
  8
PROFILEEDGES
 10
117.4747290088667
 20
84.22751387890764
 30
0.0
  0
VERTEX
  5
CF
  8
PROFILEEDGES
 10
117.2204652323825
 20
84.55887688381597
 30
0.0
  0
VERTEX
  5
D0
  8
PROFILEEDGES
 10
117.0606283405001
 20
84.94475727596796
 30
0.0
  0
VERTEX
  5
D1
  8
PROFILEEDGES
 10
117.0061109532568
 20
85.35885794433523
 30
0.0
  0
VERTEX
  5
D2
  8
PROFILEEDGES
 10
117.0606283405001
 20
85.7729586127025
 30
0.0
  0
VERTEX
  5
D3
  8
PROFILEEDGES
 10
117.2204652323832
 20
86.15883900485414
 30
0.0
  0
VERTEX
  5
D4
  8
PROFILEEDGES
 10
117.4747290088674
 20
86.4902020097627
 30
0.0
  0
VERTEX
  5
D5
  8
PROFILEEDGES
 10
117.8060920137757
 20
86.7444657862469
 30
0.0
  0
VERTEX
  5
D6
  8
PROFILEEDGES
 10
118.191972405928
 20
86.90430267813008
 30
0.0
  0
VERTEX
  5
D7
  8
PROFILEEDGES
 10
118.6060730742953
 20
86.9588200653734
 30
0.0
  0
VERTEX
  5
D8
  8
PROFILEEDGES
 10
119.0201737426626
 20
86.90430267813008
 30
0.0
  0
VERTEX
  5
D9
  8
PROFILEEDGES
 10
119.4060541348142
 20
86.74446578624725
 30
0.0
  0
VERTEX
  5
DA
  8
PROFILEEDGES
 10
119.7374171397225
 20
86.4902020097627
 30
0.0
  0
VERTEX
  5
DB
  8
PROFILEEDGES
 10
119.9916809162066
 20
86.15883900485449
 30
0.0
  0
VERTEX
  5
DC
  8
PROFILEEDGES
 10
120.1515178080898
 20
85.7729586127025
 30
0.0
  0
VERTEX
  5
DD
  8
PROFILEEDGES
 10
120.2060351953331
 20
85.35885794433523
 30
0.0
  0
VERTEX
  5
DE
  8
PROFILEEDGES
 10
120.1515178080898
 20
84.94475727596796
 30
0.0
  0
SEQEND
  5
2FA
  8
PROFILEEDGES
  0
POLYLINE
  5
78
  8
PROFILEEDGES
 66
     1
 10
0.0
 20
0.0
 30
0.0
 70
     1
  0
VERTEX
  5
DF
  8
PROFILEEDGES
 10
361.8295173808689
 20
173.9222809472944
 30
0.0
  0
VERTEX
  5
E0
  8
PROFILEEDGES
 10
361.4981543759602
 20
174.1765447237783
 30
0.0
  0
VERTEX
  5
E1
  8
PROFILEEDGES
 10
361.2438905994759
 20
174.5079077286873
 30
0.0
  0
VERTEX
  5
E2
  8
PROFILEEDGES
 10
361.0840537075928
 20
174.8937881208388
 30
0.0
  0
VERTEX
  5
E3
  8
PROFILEEDGES
 10
361.02953632035
 20
175.3078887892063
 30
0.0
  0
VERTEX
  5
E4
  8
PROFILEEDGES
 10
361.0840537075929
 20
175.7219894575735
 30
0.0
  0
VERTEX
  5
E5
  8
PROFILEEDGES
 10
361.2438905994759
 20
176.1078698497259
 30
0.0
  0
VERTEX
  5
E6
  8
PROFILEEDGES
 10
361.4981543759603
 20
176.4392328546343
 30
0.0
  0
VERTEX
  5
E7
  8
PROFILEEDGES
 10
361.8295173808689
 20
176.6934966311184
 30
0.0
  0
VERTEX
  5
E8
  8
PROFILEEDGES
 10
362.2153977730205
 20
176.8533335230017
 30
0.0
  0
VERTEX
  5
E9
  8
PROFILEEDGES
 10
362.6294984413877
 20
176.9078509102449
 30
0.0
  0
VERTEX
  5
EA
  8
PROFILEEDGES
 10
363.0435991097555
 20
176.8533335230017
 30
0.0
  0
VERTEX
  5
EB
  8
PROFILEEDGES
 10
363.429479501907
 20
176.6934966311184
 30
0.0
  0
VERTEX
  5
EC
  8
PROFILEEDGES
 10
363.7608425068155
 20
176.4392328546343
 30
0.0
  0
VERTEX
  5
ED
  8
PROFILEEDGES
 10
364.0151062832998
 20
176.1078698497259
 30
0.0
  0
VERTEX
  5
EE
  8
PROFILEEDGES
 10
364.1749431751829
 20
175.7219894575735
 30
0.0
  0
VERTEX
  5
EF
  8
PROFILEEDGES
 10
364.2294605624261
 20
175.3078887892063
 30
0.0
  0
VERTEX
  5
F0
  8
PROFILEEDGES
 10
364.1749431751829
 20
174.8937881208388
 30
0.0
  0
VERTEX
  5
F1
  8
PROFILEEDGES
 10
364.0151062832998
 20
174.5079077286875
 30
0.0
  0
VERTEX
  5
F2
  8
PROFILEEDGES
 10
363.7608425068155
 20
174.1765447237783
 30
0.0
  0
VERTEX
  5
F3
  8
PROFILEEDGES
 10
363.429479501907
 20
173.9222809472952
 30
0.0
  0
VERTEX
  5
F4
  8
PROFILEEDGES
 10
363.0435991097551
 20
173.7624440554118
 30
0.0
  0
VERTEX
  5
F5
  8
PROFILEEDGES
 10
362.6294984413881
 20
173.7079266681686
 30
0.0
  0
VERTEX
  5
F6
  8
PROFILEEDGES
 10
362.2153977730208
 20
173.7624440554118
 30
0.0
  0
SEQEND
  5
2FB
  8
PROFILEEDGES
  0
POLYLINE
  5
79
  8
PROFILEEDGES
 66
     1
 10
0.0
 20
0.0
 30
0.0
 70
     1
  0
VERTEX
  5
F7
  8
PROFILEEDGES
 10
344.3601089654206
 20
175.7219894575735
 30
0.0
  0
VERTEX
  5
F8
  8
PROFILEEDGES
 10
344.5199458573038
 20
176.1078698497253
 30
0.0
  0
VERTEX
  5
F9
  8
PROFILEEDGES
 10
344.774209633788
 20
176.4392328546343
 30
0.0
  0
VERTEX
  5
FA
  8
PROFILEEDGES
 10
345.1055726386965
 20
176.6934966311183
 30
0.0
  0
VERTEX
  5
FB
  8
PROFILEEDGES
 10
345.4914530308482
 20
176.8533335230014
 30
0.0
  0
VERTEX
  5
FC
  8
PROFILEEDGES
 10
345.9055536992154
 20
176.9078509102449
 30
0.0
  0
VERTEX
  5
FD
  8
PROFILEEDGES
 10
346.3196543675827
 20
176.8533335230017
 30
0.0
  0
VERTEX
  5
FE
  8
PROFILEEDGES
 10
346.7055347597347
 20
176.6934966311183
 30
0.0
  0
VERTEX
  5
FF
  8
PROFILEEDGES
 10
347.0368977646432
 20
176.4392328546343
 30
0.0
  0
VERTEX
  5
100
  8
PROFILEEDGES
 10
347.2911615411275
 20
176.1078698497259
 30
0.0
  0
VERTEX
  5
101
  8
PROFILEEDGES
 10
347.4509984330106
 20
175.7219894575736
 30
0.0
  0
VERTEX
  5
102
  8
PROFILEEDGES
 10
347.5055158202539
 20
175.3078887892063
 30
0.0
  0
VERTEX
  5
103
  8
PROFILEEDGES
 10
347.4509984330106
 20
174.8937881208388
 30
0.0
  0
VERTEX
  5
104
  8
PROFILEEDGES
 10
347.2911615411273
 20
174.5079077286872
 30
0.0
  0
VERTEX
  5
105
  8
PROFILEEDGES
 10
347.0368977646432
 20
174.1765447237783
 30
0.0
  0
VERTEX
  5
106
  8
PROFILEEDGES
 10
346.7055347597347
 20
173.9222809472943
 30
0.0
  0
VERTEX
  5
107
  8
PROFILEEDGES
 10
346.3196543675827
 20
173.7624440554112
 30
0.0
  0
VERTEX
  5
108
  8
PROFILEEDGES
 10
345.9055536992158
 20
173.7079266681684
 30
0.0
  0
VERTEX
  5
109
  8
PROFILEEDGES
 10
345.4914530308485
 20
173.7624440554112
 30
0.0
  0
VERTEX
  5
10A
  8
PROFILEEDGES
 10
345.1055726386965
 20
173.9222809472943
 30
0.0
  0
VERTEX
  5
10B
  8
PROFILEEDGES
 10
344.7742096337878
 20
174.1765447237785
 30
0.0
  0
VERTEX
  5
10C
  8
PROFILEEDGES
 10
344.5199458573038
 20
174.5079077286875
 30
0.0
  0
VERTEX
  5
10D
  8
PROFILEEDGES
 10
344.3601089654206
 20
174.8937881208391
 30
0.0
  0
VERTEX
  5
10E
  8
PROFILEEDGES
 10
344.3055915781777
 20
175.3078887892063
 30
0.0
  0
SEQEND
  5
2FC
  8
PROFILEEDGES
  0
POLYLINE
  5
7A
  8
PROFILEEDGES
 66
     1
 10
0.0
 20
0.0
 30
0.0
 70
     1
  0
VERTEX
  5
10F
  8
PROFILEEDGES
 10
345.3879321453633
 20
220.6454184175408
 30
0.0
  0
VERTEX
  5
110
  8
PROFILEEDGES
 10
345.8020328137306
 20
220.5909010302973
 30
0.0
  0
VERTEX
  5
111
  8
PROFILEEDGES
 10
346.1879132058824
 20
220.4310641384142
 30
0.0
  0
VERTEX
  5
112
  8
PROFILEEDGES
 10
346.519276210791
 20
220.1768003619301
 30
0.0
  0
VERTEX
  5
113
  8
PROFILEEDGES
 10
346.7735399872751
 20
219.845437357021
 30
0.0
  0
VERTEX
  5
114
  8
PROFILEEDGES
 10
346.9333768791582
 20
219.4595569648695
 30
0.0
  0
VERTEX
  5
115
  8
PROFILEEDGES
 10
346.9878942664015
 20
219.0454562965022
 30
0.0
  0
VERTEX
  5
116
  8
PROFILEEDGES
 10
346.9333768791582
 20
218.6313556281349
 30
0.0
  0
VERTEX
  5
117
  8
PROFILEEDGES
 10
346.7735399872751
 20
218.245475235984
 30
0.0
  0
VERTEX
  5
118
  8
PROFILEEDGES
 10
346.5192762107909
 20
217.9141122310743
 30
0.0
  0
VERTEX
  5
119
  8
PROFILEEDGES
 10
346.1879132058825
 20
217.6598484545909
 30
0.0
  0
VERTEX
  5
11A
  8
PROFILEEDGES
 10
345.8020328137305
 20
217.5000115627078
 30
0.0
  0
VERTEX
  5
11B
  8
PROFILEEDGES
 10
345.3879321453632
 20
217.4454941754643
 30
0.0
  0
VERTEX
  5
11C
  8
PROFILEEDGES
 10
344.9738314769961
 20
217.5000115627078
 30
0.0
  0
VERTEX
  5
11D
  8
PROFILEEDGES
 10
344.5879510848442
 20
217.6598484545901
 30
0.0
  0
VERTEX
  5
11E
  8
PROFILEEDGES
 10
344.2565880799357
 20
217.9141122310743
 30
0.0
  0
VERTEX
  5
11F
  8
PROFILEEDGES
 10
344.0023243034515
 20
218.2454752359832
 30
0.0
  0
VERTEX
  5
120
  8
PROFILEEDGES
 10
343.8424874115684
 20
218.6313556281356
 30
0.0
  0
VERTEX
  5
121
  8
PROFILEEDGES
 10
343.7879700243253
 20
219.0454562965022
 30
0.0
  0
VERTEX
  5
122
  8
PROFILEEDGES
 10
343.8424874115684
 20
219.4595569648693
 30
0.0
  0
VERTEX
  5
123
  8
PROFILEEDGES
 10
344.0023243034515
 20
219.845437357021
 30
0.0
  0
VERTEX
  5
124
  8
PROFILEEDGES
 10
344.2565880799357
 20
220.17680036193
 30
0.0
  0
VERTEX
  5
125
  8
PROFILEEDGES
 10
344.5879510848442
 20
220.4310641384142
 30
0.0
  0
VERTEX
  5
126
  8
PROFILEEDGES
 10
344.9738314769959
 20
220.5909010302973
 30
0.0
  0
SEQEND
  5
2FD
  8
PROFILEEDGES
  0
POLYLINE
  5
7B
  8
PROFILEEDGES
 66
     1
 10
0.0
 20
0.0
 30
0.0
 70
     1
  0
VERTEX
  5
127
  8
PROFILEEDGES
 10
367.8342380640512
 20
219.8454373570216
 30
0.0
  0
VERTEX
  5
128
  8
PROFILEEDGES
 10
367.9940749559344
 20
219.4595569648693
 30
0.0
  0
VERTEX
  5
129
  8
PROFILEEDGES
 10
368.0485923431777
 20
219.0454562965022
 30
0.0
  0
VERTEX
  5
12A
  8
PROFILEEDGES
 10
367.9940749559345
 20
218.6313556281357
 30
0.0
  0
VERTEX
  5
12B
  8
PROFILEEDGES
 10
367.8342380640515
 20
218.245475235984
 30
0.0
  0
VERTEX
  5
12C
  8
PROFILEEDGES
 10
367.5799742875673
 20
217.9141122310749
 30
0.0
  0
VERTEX
  5
12D
  8
PROFILEEDGES
 10
367.2486112826584
 20
217.6598484545909
 30
0.0
  0
VERTEX
  5
12E
  8
PROFILEEDGES
 10
366.8627308905064
 20
217.5000115627078
 30
0.0
  0
VERTEX
  5
12F
  8
PROFILEEDGES
 10
366.4486302221393
 20
217.4454941754644
 30
0.0
  0
VERTEX
  5
130
  8
PROFILEEDGES
 10
366.034529553772
 20
217.5000115627079
 30
0.0
  0
VERTEX
  5
131
  8
PROFILEEDGES
 10
365.6486491616203
 20
217.6598484545909
 30
0.0
  0
VERTEX
  5
132
  8
PROFILEEDGES
 10
365.3172861567118
 20
217.9141122310749
 30
0.0
  0
VERTEX
  5
133
  8
PROFILEEDGES
 10
365.0630223802274
 20
218.2454752359833
 30
0.0
  0
VERTEX
  5
134
  8
PROFILEEDGES
 10
364.9031854883444
 20
218.6313556281357
 30
0.0
  0
VERTEX
  5
135
  8
PROFILEEDGES
 10
364.8486681011012
 20
219.045456296502
 30
0.0
  0
VERTEX
  5
136
  8
PROFILEEDGES
 10
364.9031854883444
 20
219.4595569648694
 30
0.0
  0
VERTEX
  5
137
  8
PROFILEEDGES
 10
365.0630223802276
 20
219.845437357021
 30
0.0
  0
VERTEX
  5
138
  8
PROFILEEDGES
 10
365.3172861567118
 20
220.1768003619301
 30
0.0
  0
VERTEX
  5
139
  8
PROFILEEDGES
 10
365.6486491616205
 20
220.4310641384142
 30
0.0
  0
VERTEX
  5
13A
  8
PROFILEEDGES
 10
366.0345295537721
 20
220.5909010302973
 30
0.0
  0
VERTEX
  5
13B
  8
PROFILEEDGES
 10
366.4486302221395
 20
220.6454184175408
 30
0.0
  0
VERTEX
  5
13C
  8
PROFILEEDGES
 10
366.8627308905065
 20
220.5909010302973
 30
0.0
  0
VERTEX
  5
13D
  8
PROFILEEDGES
 10
367.2486112826584
 20
220.4310641384142
 30
0.0
  0
VERTEX
  5
13E
  8
PROFILEEDGES
 10
367.5799742875673
 20
220.1768003619302
 30
0.0
  0
SEQEND
  5
2FE
  8
PROFILEEDGES
  0
POLYLINE
  5
7C
  8
PROFILEEDGES
 66
     1
 10
0.0
 20
0.0
 30
0.0
 70
     1
  0
VERTEX
  5
13F
  8
PROFILEEDGES
 10
364.6262615510648
 20
275.8937284826774
 30
0.0
  0
VERTEX
  5
140
  8
PROFILEEDGES
 10
364.2948985461562
 20
276.147992259161
 30
0.0
  0
VERTEX
  5
141
  8
PROFILEEDGES
 10
364.0406347696721
 20
276.4793552640701
 30
0.0
  0
VERTEX
  5
142
  8
PROFILEEDGES
 10
363.8807978777888
 20
276.8652356562217
 30
0.0
  0
VERTEX
  5
143
  8
PROFILEEDGES
 10
363.8262804905459
 20
277.2793363245892
 30
0.0
  0
VERTEX
  5
144
  8
PROFILEEDGES
 10
363.8807978777888
 20
277.6934369929563
 30
0.0
  0
VERTEX
  5
145
  8
PROFILEEDGES
 10
364.0406347696721
 20
278.0793173851089
 30
0.0
  0
VERTEX
  5
146
  8
PROFILEEDGES
 10
364.2948985461562
 20
278.4106803900171
 30
0.0
  0
VERTEX
  5
147
  8
PROFILEEDGES
 10
364.6262615510648
 20
278.6649441665012
 30
0.0
  0
VERTEX
  5
148
  8
PROFILEEDGES
 10
365.0121419432165
 20
278.8247810583844
 30
0.0
  0
VERTEX
  5
149
  8
PROFILEEDGES
 10
365.4262426115836
 20
278.8792984456277
 30
0.0
  0
VERTEX
  5
14A
  8
PROFILEEDGES
 10
365.8403432799514
 20
278.8247810583845
 30
0.0
  0
VERTEX
  5
14B
  8
PROFILEEDGES
 10
366.226223672103
 20
278.6649441665012
 30
0.0
  0
VERTEX
  5
14C
  8
PROFILEEDGES
 10
366.5575866770117
 20
278.4106803900171
 30
0.0
  0
VERTEX
  5
14D
  8
PROFILEEDGES
 10
366.8118504534958
 20
278.0793173851089
 30
0.0
  0
VERTEX
  5
14E
  8
PROFILEEDGES
 10
366.9716873453789
 20
277.6934369929563
 30
0.0
  0
VERTEX
  5
14F
  8
PROFILEEDGES
 10
367.0262047326221
 20
277.2793363245892
 30
0.0
  0
VERTEX
  5
150
  8
PROFILEEDGES
 10
366.9716873453789
 20
276.8652356562217
 30
0.0
  0
VERTEX
  5
151
  8
PROFILEEDGES
 10
366.8118504534958
 20
276.4793552640704
 30
0.0
  0
VERTEX
  5
152
  8
PROFILEEDGES
 10
366.5575866770116
 20
276.147992259161
 30
0.0
  0
VERTEX
  5
153
  8
PROFILEEDGES
 10
366.226223672103
 20
275.8937284826781
 30
0.0
  0
VERTEX
  5
154
  8
PROFILEEDGES
 10
365.840343279951
 20
275.7338915907947
 30
0.0
  0
VERTEX
  5
155
  8
PROFILEEDGES
 10
365.426242611584
 20
275.6793742035514
 30
0.0
  0
VERTEX
  5
156
  8
PROFILEEDGES
 10
365.0121419432168
 20
275.7338915907947
 30
0.0
  0
SEQEND
  5
2FF
  8
PROFILEEDGES
  0
POLYLINE
  5
7D
  8
PROFILEEDGES
 66
     1
 10
0.0
 20
0.0
 30
0.0
 70
     1
  0
VERTEX
  5
157
  8
PROFILEEDGES
 10
347.1568531356166
 20
277.6934369929563
 30
0.0
  0
VERTEX
  5
158
  8
PROFILEEDGES
 10
347.3166900274996
 20
278.0793173851082
 30
0.0
  0
VERTEX
  5
159
  8
PROFILEEDGES
 10
347.5709538039839
 20
278.4106803900172
 30
0.0
  0
VERTEX
  5
15A
  8
PROFILEEDGES
 10
347.9023168088925
 20
278.6649441665012
 30
0.0
  0
VERTEX
  5
15B
  8
PROFILEEDGES
 10
348.2881972010441
 20
278.8247810583844
 30
0.0
  0
VERTEX
  5
15C
  8
PROFILEEDGES
 10
348.7022978694114
 20
278.8792984456277
 30
0.0
  0
VERTEX
  5
15D
  8
PROFILEEDGES
 10
349.1163985377788
 20
278.8247810583845
 30
0.0
  0
VERTEX
  5
15E
  8
PROFILEEDGES
 10
349.5022789299306
 20
278.6649441665012
 30
0.0
  0
VERTEX
  5
15F
  8
PROFILEEDGES
 10
349.8336419348394
 20
278.4106803900171
 30
0.0
  0
VERTEX
  5
160
  8
PROFILEEDGES
 10
350.0879057113235
 20
278.0793173851088
 30
0.0
  0
VERTEX
  5
161
  8
PROFILEEDGES
 10
350.2477426032065
 20
277.6934369929563
 30
0.0
  0
VERTEX
  5
162
  8
PROFILEEDGES
 10
350.3022599904498
 20
277.2793363245892
 30
0.0
  0
VERTEX
  5
163
  8
PROFILEEDGES
 10
350.2477426032065
 20
276.8652356562217
 30
0.0
  0
VERTEX
  5
164
  8
PROFILEEDGES
 10
350.0879057113235
 20
276.47935526407
 30
0.0
  0
VERTEX
  5
165
  8
PROFILEEDGES
 10
349.8336419348394
 20
276.1479922591611
 30
0.0
  0
VERTEX
  5
166
  8
PROFILEEDGES
 10
349.5022789299306
 20
275.8937284826771
 30
0.0
  0
VERTEX
  5
167
  8
PROFILEEDGES
 10
349.1163985377787
 20
275.733891590794
 30
0.0
  0
VERTEX
  5
168
  8
PROFILEEDGES
 10
348.7022978694118
 20
275.6793742035513
 30
0.0
  0
VERTEX
  5
169
  8
PROFILEEDGES
 10
348.2881972010444
 20
275.733891590794
 30
0.0
  0
VERTEX
  5
16A
  8
PROFILEEDGES
 10
347.9023168088925
 20
275.8937284826771
 30
0.0
  0
VERTEX
  5
16B
  8
PROFILEEDGES
 10
347.5709538039839
 20
276.1479922591612
 30
0.0
  0
VERTEX
  5
16C
  8
PROFILEEDGES
 10
347.3166900274996
 20
276.4793552640704
 30
0.0
  0
VERTEX
  5
16D
  8
PROFILEEDGES
 10
347.1568531356166
 20
276.865235656222
 30
0.0
  0
VERTEX
  5
16E
  8
PROFILEEDGES
 10
347.1023357483736
 20
277.2793363245892
 30
0.0
  0
SEQEND
  5
300
  8
PROFILEEDGES
  0
POLYLINE
  5
7E
  8
PROFILEEDGES
 66
     1
 10
0.0
 20
0.0
 30
0.0
 70
     1
  0
VERTEX
  5
16F
  8
PROFILEEDGES
 10
348.1846763155592
 20
322.6168659529237
 30
0.0
  0
VERTEX
  5
170
  8
PROFILEEDGES
 10
348.5987769839266
 20
322.5623485656803
 30
0.0
  0
VERTEX
  5
171
  8
PROFILEEDGES
 10
348.9846573760782
 20
322.4025116737971
 30
0.0
  0
VERTEX
  5
172
  8
PROFILEEDGES
 10
349.3160203809869
 20
322.148247897313
 30
0.0
  0
VERTEX
  5
173
  8
PROFILEEDGES
 10
349.5702841574711
 20
321.816884892404
 30
0.0
  0
VERTEX
  5
174
  8
PROFILEEDGES
 10
349.7301210493543
 20
321.4310045002525
 30
0.0
  0
VERTEX
  5
175
  8
PROFILEEDGES
 10
349.7846384365975
 20
321.0169038318852
 30
0.0
  0
VERTEX
  5
176
  8
PROFILEEDGES
 10
349.7301210493543
 20
320.6028031635178
 30
0.0
  0
VERTEX
  5
177
  8
PROFILEEDGES
 10
349.5702841574711
 20
320.216922771367
 30
0.0
  0
VERTEX
  5
178
  8
PROFILEEDGES
 10
349.3160203809869
 20
319.8855597664573
 30
0.0
  0
VERTEX
  5
179
  8
PROFILEEDGES
 10
348.9846573760785
 20
319.6312959899739
 30
0.0
  0
VERTEX
  5
17A
  8
PROFILEEDGES
 10
348.5987769839265
 20
319.4714590980907
 30
0.0
  0
VERTEX
  5
17B
  8
PROFILEEDGES
 10
348.1846763155592
 20
319.4169417108473
 30
0.0
  0
VERTEX
  5
17C
  8
PROFILEEDGES
 10
347.7705756471921
 20
319.4714590980907
 30
0.0
  0
VERTEX
  5
17D
  8
PROFILEEDGES
 10
347.3846952550402
 20
319.6312959899732
 30
0.0
  0
VERTEX
  5
17E
  8
PROFILEEDGES
 10
347.0533322501316
 20
319.8855597664573
 30
0.0
  0
VERTEX
  5
17F
  8
PROFILEEDGES
 10
346.7990684736475
 20
320.2169227713662
 30
0.0
  0
VERTEX
  5
180
  8
PROFILEEDGES
 10
346.6392315817644
 20
320.6028031635185
 30
0.0
  0
VERTEX
  5
181
  8
PROFILEEDGES
 10
346.5847141945212
 20
321.0169038318852
 30
0.0
  0
VERTEX
  5
182
  8
PROFILEEDGES
 10
346.6392315817644
 20
321.4310045002521
 30
0.0
  0
VERTEX
  5
183
  8
PROFILEEDGES
 10
346.7990684736475
 20
321.8168848924038
 30
0.0
  0
VERTEX
  5
184
  8
PROFILEEDGES
 10
347.0533322501316
 20
322.148247897313
 30
0.0
  0
VERTEX
  5
185
  8
PROFILEEDGES
 10
347.3846952550402
 20
322.4025116737971
 30
0.0
  0
VERTEX
  5
186
  8
PROFILEEDGES
 10
347.7705756471919
 20
322.5623485656803
 30
0.0
  0
SEQEND
  5
301
  8
PROFILEEDGES
  0
POLYLINE
  5
7F
  8
PROFILEEDGES
 66
     1
 10
0.0
 20
0.0
 30
0.0
 70
     1
  0
VERTEX
  5
187
  8
PROFILEEDGES
 10
370.6309822342471
 20
321.8168848924046
 30
0.0
  0
VERTEX
  5
188
  8
PROFILEEDGES
 10
370.7908191261303
 20
321.4310045002521
 30
0.0
  0
VERTEX
  5
189
  8
PROFILEEDGES
 10
370.8453365133736
 20
321.0169038318852
 30
0.0
  0
VERTEX
  5
18A
  8
PROFILEEDGES
 10
370.7908191261305
 20
320.6028031635185
 30
0.0
  0
VERTEX
  5
18B
  8
PROFILEEDGES
 10
370.6309822342474
 20
320.216922771367
 30
0.0
  0
VERTEX
  5
18C
  8
PROFILEEDGES
 10
370.3767184577633
 20
319.8855597664577
 30
0.0
  0
VERTEX
  5
18D
  8
PROFILEEDGES
 10
370.0453554528543
 20
319.6312959899739
 30
0.0
  0
VERTEX
  5
18E
  8
PROFILEEDGES
 10
369.6594750607025
 20
319.4714590980906
 30
0.0
  0
VERTEX
  5
18F
  8
PROFILEEDGES
 10
369.2453743923352
 20
319.4169417108473
 30
0.0
  0
VERTEX
  5
190
  8
PROFILEEDGES
 10
368.8312737239679
 20
319.4714590980907
 30
0.0
  0
VERTEX
  5
191
  8
PROFILEEDGES
 10
368.4453933318162
 20
319.6312959899739
 30
0.0
  0
VERTEX
  5
192
  8
PROFILEEDGES
 10
368.1140303269077
 20
319.8855597664578
 30
0.0
  0
VERTEX
  5
193
  8
PROFILEEDGES
 10
367.8597665504236
 20
320.2169227713663
 30
0.0
  0
VERTEX
  5
194
  8
PROFILEEDGES
 10
367.6999296585404
 20
320.6028031635186
 30
0.0
  0
VERTEX
  5
195
  8
PROFILEEDGES
 10
367.6454122712973
 20
321.016903831885
 30
0.0
  0
VERTEX
  5
196
  8
PROFILEEDGES
 10
367.6999296585404
 20
321.4310045002524
 30
0.0
  0
VERTEX
  5
197
  8
PROFILEEDGES
 10
367.8597665504236
 20
321.816884892404
 30
0.0
  0
VERTEX
  5
198
  8
PROFILEEDGES
 10
368.1140303269077
 20
322.148247897313
 30
0.0
  0
VERTEX
  5
199
  8
PROFILEEDGES
 10
368.4453933318165
 20
322.4025116737971
 30
0.0
  0
VERTEX
  5
19A
  8
PROFILEEDGES
 10
368.8312737239681
 20
322.5623485656803
 30
0.0
  0
VERTEX
  5
19B
  8
PROFILEEDGES
 10
369.2453743923353
 20
322.6168659529237
 30
0.0
  0
VERTEX
  5
19C
  8
PROFILEEDGES
 10
369.6594750607025
 20
322.5623485656803
 30
0.0
  0
VERTEX
  5
19D
  8
PROFILEEDGES
 10
370.0453554528543
 20
322.4025116737971
 30
0.0
  0
VERTEX
  5
19E
  8
PROFILEEDGES
 10
370.3767184577633
 20
322.1482478973132
 30
0.0
  0
SEQEND
  5
302
  8
PROFILEEDGES
  0
POLYLINE
  5
80
  8
PROFILEEDGES
 66
     1
 10
0.0
 20
0.0
 30
0.0
 70
     1
  0
VERTEX
  5
19F
  8
PROFILEEDGES
 10
587.8168481130742
 20
293.5940039640983
 30
0.0
  0
VERTEX
  5
1A0
  8
PROFILEEDGES
 10
587.4990183924699
 20
294.0082077202343
 30
0.0
  0
VERTEX
  5
1A1
  8
PROFILEEDGES
 10
587.2992222776159
 20
294.4905582104241
 30
0.0
  0
VERTEX
  5
1A2
  8
PROFILEEDGES
 10
587.2310755435608
 20
295.0081840458827
 30
0.0
  0
VERTEX
  5
1A3
  8
PROFILEEDGES
 10
587.2310755435608
 20
297.3081295948751
 30
0.0
  0
VERTEX
  5
1A4
  8
PROFILEEDGES
 10
585.0311276271348
 20
297.3081295948751
 30
0.0
  0
VERTEX
  5
1A5
  8
PROFILEEDGES
 10
585.0311276271348
 20
337.7071731510879
 30
0.0
  0
VERTEX
  5
1A6
  8
PROFILEEDGES
 10
587.231075543561
 20
337.7071731510879
 30
0.0
  0
VERTEX
  5
1A7
  8
PROFILEEDGES
 10
587.231075543561
 20
340.0071187000802
 30
0.0
  0
VERTEX
  5
1A8
  8
PROFILEEDGES
 10
587.2992222776152
 20
340.5247445355393
 30
0.0
  0
VERTEX
  5
1A9
  8
PROFILEEDGES
 10
587.499018392469
 20
341.0070950257289
 30
0.0
  0
VERTEX
  5
1AA
  8
PROFILEEDGES
 10
587.8168481130742
 20
341.4212987818649
 30
0.0
  0
VERTEX
  5
1AB
  8
PROFILEEDGES
 10
588.2310518692102
 20
341.7391285024701
 30
0.0
  0
VERTEX
  5
1AC
  8
PROFILEEDGES
 10
588.7134023593999
 20
341.9389246173239
 30
0.0
  0
VERTEX
  5
1AD
  8
PROFILEEDGES
 10
589.2310281948587
 20
342.0070713513778
 30
0.0
  0
VERTEX
  5
1AE
  8
PROFILEEDGES
 10
589.748654030318
 20
341.938924617324
 30
0.0
  0
VERTEX
  5
1AF
  8
PROFILEEDGES
 10
590.2310045205077
 20
341.7391285024698
 30
0.0
  0
VERTEX
  5
1B0
  8
PROFILEEDGES
 10
590.6452082766434
 20
341.4212987818644
 30
0.0
  0
VERTEX
  5
1B1
  8
PROFILEEDGES
 10
590.9630379972489
 20
341.0070950257294
 30
0.0
  0
VERTEX
  5
1B2
  8
PROFILEEDGES
 10
591.1628341121025
 20
340.5247445355396
 30
0.0
  0
VERTEX
  5
1B3
  8
PROFILEEDGES
 10
591.230980846156
 20
340.0071187000801
 30
0.0
  0
VERTEX
  5
1B4
  8
PROFILEEDGES
 10
591.230980846156
 20
337.7071731510879
 30
0.0
  0
VERTEX
  5
1B5
  8
PROFILEEDGES
 10
599.2307914513469
 20
337.7071731510878
 30
0.0
  0
VERTEX
  5
1B6
  8
PROFILEEDGES
 10
599.2307914513469
 20
340.00711870008
 30
0.0
  0
VERTEX
  5
1B7
  8
PROFILEEDGES
 10
599.2989381854018
 20
340.524744535539
 30
0.0
  0
VERTEX
  5
1B8
  8
PROFILEEDGES
 10
599.4987343002556
 20
341.0070950257289
 30
0.0
  0
VERTEX
  5
1B9
  8
PROFILEEDGES
 10
599.8165640208601
 20
341.4212987818649
 30
0.0
  0
VERTEX
  5
1BA
  8
PROFILEEDGES
 10
600.2307677769959
 20
341.7391285024697
 30
0.0
  0
VERTEX
  5
1BB
  8
PROFILEEDGES
 10
600.7131182671856
 20
341.9389246173238
 30
0.0
  0
VERTEX
  5
1BC
  8
PROFILEEDGES
 10
601.2307441026446
 20
342.0070713513777
 30
0.0
  0
VERTEX
  5
1BD
  8
PROFILEEDGES
 10
601.7483699381041
 20
341.9389246173239
 30
0.0
  0
VERTEX
  5
1BE
  8
PROFILEEDGES
 10
602.2307204282936
 20
341.7391285024697
 30
0.0
  0
VERTEX
  5
1BF
  8
PROFILEEDGES
 10
602.6449241844293
 20
341.4212987818643
 30
0.0
  0
VERTEX
  5
1C0
  8
PROFILEEDGES
 10
602.9627539050343
 20
341.0070950257289
 30
0.0
  0
VERTEX
  5
1C1
  8
PROFILEEDGES
 10
603.1625500198884
 20
340.5247445355398
 30
0.0
  0
VERTEX
  5
1C2
  8
PROFILEEDGES
 10
603.2306967539421
 20
340.00711870008
 30
0.0
  0
VERTEX
  5
1C3
  8
PROFILEEDGES
 10
603.2306967539421
 20
337.7071731510878
 30
0.0
  0
VERTEX
  5
1C4
  8
PROFILEEDGES
 10
605.4306446703708
 20
337.7071731510878
 30
0.0
  0
VERTEX
  5
1C5
  8
PROFILEEDGES
 10
605.4306446703708
 20
297.3081295948749
 30
0.0
  0
VERTEX
  5
1C6
  8
PROFILEEDGES
 10
603.2306967539421
 20
297.3081295948749
 30
0.0
  0
VERTEX
  5
1C7
  8
PROFILEEDGES
 10
603.2306967539421
 20
295.0081840458826
 30
0.0
  0
VERTEX
  5
1C8
  8
PROFILEEDGES
 10
603.1625500198882
 20
294.4905582104235
 30
0.0
  0
VERTEX
  5
1C9
  8
PROFILEEDGES
 10
602.962753905035
 20
294.0082077202338
 30
0.0
  0
VERTEX
  5
1CA
  8
PROFILEEDGES
 10
602.6449241844293
 20
293.5940039640984
 30
0.0
  0
VERTEX
  5
1CB
  8
PROFILEEDGES
 10
602.2307204282934
 20
293.2761742434933
 30
0.0
  0
VERTEX
  5
1CC
  8
PROFILEEDGES
 10
601.7483699381041
 20
293.0763781286389
 30
0.0
  0
VERTEX
  5
1CD
  8
PROFILEEDGES
 10
601.2307441026448
 20
293.008231394585
 30
0.0
  0
VERTEX
  5
1CE
  8
PROFILEEDGES
 10
600.7131182671856
 20
293.0763781286391
 30
0.0
  0
VERTEX
  5
1CF
  8
PROFILEEDGES
 10
600.2307677769959
 20
293.2761742434928
 30
0.0
  0
VERTEX
  5
1D0
  8
PROFILEEDGES
 10
599.8165640208601
 20
293.5940039640981
 30
0.0
  0
VERTEX
  5
1D1
  8
PROFILEEDGES
 10
599.4987343002556
 20
294.0082077202342
 30
0.0
  0
VERTEX
  5
1D2
  8
PROFILEEDGES
 10
599.2989381854018
 20
294.490558210424
 30
0.0
  0
VERTEX
  5
1D3
  8
PROFILEEDGES
 10
599.2307914513467
 20
295.0081840458826
 30
0.0
  0
VERTEX
  5
1D4
  8
PROFILEEDGES
 10
599.2307914513467
 20
297.3081295948749
 30
0.0
  0
VERTEX
  5
1D5
  8
PROFILEEDGES
 10
591.2309808461562
 20
297.308129594875
 30
0.0
  0
VERTEX
  5
1D6
  8
PROFILEEDGES
 10
591.2309808461562
 20
295.0081840458827
 30
0.0
  0
VERTEX
  5
1D7
  8
PROFILEEDGES
 10
591.162834112102
 20
294.4905582104235
 30
0.0
  0
VERTEX
  5
1D8
  8
PROFILEEDGES
 10
590.9630379972484
 20
294.0082077202338
 30
0.0
  0
VERTEX
  5
1D9
  8
PROFILEEDGES
 10
590.6452082766432
 20
293.5940039640981
 30
0.0
  0
VERTEX
  5
1DA
  8
PROFILEEDGES
 10
590.2310045205074
 20
293.276174243493
 30
0.0
  0
VERTEX
  5
1DB
  8
PROFILEEDGES
 10
589.748654030318
 20
293.0763781286389
 30
0.0
  0
VERTEX
  5
1DC
  8
PROFILEEDGES
 10
589.2310281948587
 20
293.0082313945851
 30
0.0
  0
VERTEX
  5
1DD
  8
PROFILEEDGES
 10
588.7134023593999
 20
293.0763781286389
 30
0.0
  0
VERTEX
  5
1DE
  8
PROFILEEDGES
 10
588.2310518692098
 20
293.2761742434928
 30
0.0
  0
SEQEND
  5
303
  8
PROFILEEDGES
  0
POLYLINE
  5
81
  8
PROFILEEDGES
 66
     1
 10
0.0
 20
0.0
 30
0.0
 70
     1
  0
VERTEX
  5
1DF
  8
PROFILEEDGES
 10
455.1135034040588
 20
329.7118101757189
 30
0.0
  0
VERTEX
  5
1E0
  8
PROFILEEDGES
 10
455.1135034040588
 20
339.7115734322074
 30
0.0
  0
VERTEX
  5
1E1
  8
PROFILEEDGES
 10
460.8133684602572
 20
339.7115734322074
 30
0.0
  0
VERTEX
  5
1E2
  8
PROFILEEDGES
 10
460.8133684602572
 20
329.7118101757189
 30
0.0
  0
SEQEND
  5
304
  8
PROFILEEDGES
  0
POLYLINE
  5
82
  8
PROFILEEDGES
 66
     1
 10
0.0
 20
0.0
 30
0.0
 70
     1
  0
VERTEX
  5
1E3
  8
PROFILEEDGES
 10
426.2015078816503
 20
295.0081840458841
 30
0.0
  0
VERTEX
  5
1E4
  8
PROFILEEDGES
 10
426.2696546157046
 20
294.490558210425
 30
0.0
  0
VERTEX
  5
1E5
  8
PROFILEEDGES
 10
426.4694507305575
 20
294.0082077202354
 30
0.0
  0
VERTEX
  5
1E6
  8
PROFILEEDGES
 10
426.7872804511633
 20
293.5940039641
 30
0.0
  0
VERTEX
  5
1E7
  8
PROFILEEDGES
 10
427.2014842072998
 20
293.2761742434948
 30
0.0
  0
VERTEX
  5
1E8
  8
PROFILEEDGES
 10
427.6838346974889
 20
293.0763781286405
 30
0.0
  0
VERTEX
  5
1E9
  8
PROFILEEDGES
 10
428.201460532948
 20
293.0082313945866
 30
0.0
  0
VERTEX
  5
1EA
  8
PROFILEEDGES
 10
428.7190863684072
 20
293.0763781286407
 30
0.0
  0
VERTEX
  5
1EB
  8
PROFILEEDGES
 10
429.2014368585973
 20
293.2761742434944
 30
0.0
  0
VERTEX
  5
1EC
  8
PROFILEEDGES
 10
429.6156406147326
 20
293.5940039640996
 30
0.0
  0
VERTEX
  5
1ED
  8
PROFILEEDGES
 10
429.9334703353373
 20
294.0082077202359
 30
0.0
  0
VERTEX
  5
1EE
  8
PROFILEEDGES
 10
430.1332664501912
 20
294.4905582104257
 30
0.0
  0
VERTEX
  5
1EF
  8
PROFILEEDGES
 10
430.201413184246
 20
295.0081840458841
 30
0.0
  0
VERTEX
  5
1F0
  8
PROFILEEDGES
 10
430.201413184246
 20
297.3081295948765
 30
0.0
  0
VERTEX
  5
1F1
  8
PROFILEEDGES
 10
438.2012237894372
 20
297.3081295948765
 30
0.0
  0
VERTEX
  5
1F2
  8
PROFILEEDGES
 10
438.2012237894372
 20
295.0081840458843
 30
0.0
  0
VERTEX
  5
1F3
  8
PROFILEEDGES
 10
438.2693705234913
 20
294.4905582104251
 30
0.0
  0
VERTEX
  5
1F4
  8
PROFILEEDGES
 10
438.4691666383447
 20
294.0082077202355
 30
0.0
  0
VERTEX
  5
1F5
  8
PROFILEEDGES
 10
438.78699635895
 20
293.5940039640996
 30
0.0
  0
VERTEX
  5
1F6
  8
PROFILEEDGES
 10
439.2012001150858
 20
293.2761742434946
 30
0.0
  0
VERTEX
  5
1F7
  8
PROFILEEDGES
 10
439.6835506052755
 20
293.0763781286405
 30
0.0
  0
VERTEX
  5
1F8
  8
PROFILEEDGES
 10
440.2011764407345
 20
293.0082313945867
 30
0.0
  0
VERTEX
  5
1F9
  8
PROFILEEDGES
 10
440.7188022761938
 20
293.0763781286405
 30
0.0
  0
VERTEX
  5
1FA
  8
PROFILEEDGES
 10
441.2011527663838
 20
293.2761742434944
 30
0.0
  0
VERTEX
  5
1FB
  8
PROFILEEDGES
 10
441.6153565225191
 20
293.5940039640998
 30
0.0
  0
VERTEX
  5
1FC
  8
PROFILEEDGES
 10
441.9331862431238
 20
294.0082077202359
 30
0.0
  0
VERTEX
  5
1FD
  8
PROFILEEDGES
 10
442.1329823579776
 20
294.4905582104257
 30
0.0
  0
VERTEX
  5
1FE
  8
PROFILEEDGES
 10
442.2011290920328
 20
295.0081840458843
 30
0.0
  0
VERTEX
  5
1FF
  8
PROFILEEDGES
 10
442.2011290920328
 20
297.3081295948765
 30
0.0
  0
VERTEX
  5
200
  8
PROFILEEDGES
 10
444.4010770084586
 20
297.3081295948767
 30
0.0
  0
VERTEX
  5
201
  8
PROFILEEDGES
 10
444.4010770084586
 20
337.70717315109
 30
0.0
  0
VERTEX
  5
202
  8
PROFILEEDGES
 10
442.2011290920324
 20
337.7071731510899
 30
0.0
  0
VERTEX
  5
203
  8
PROFILEEDGES
 10
442.2011290920324
 20
340.0071187000823
 30
0.0
  0
VERTEX
  5
204
  8
PROFILEEDGES
 10
442.1329823579783
 20
340.5247445355416
 30
0.0
  0
VERTEX
  5
205
  8
PROFILEEDGES
 10
441.9331862431245
 20
341.0070950257311
 30
0.0
  0
VERTEX
  5
206
  8
PROFILEEDGES
 10
441.6153565225191
 20
341.421298781867
 30
0.0
  0
VERTEX
  5
207
  8
PROFILEEDGES
 10
441.201152766383
 20
341.7391285024722
 30
0.0
  0
VERTEX
  5
208
  8
PROFILEEDGES
 10
440.7188022761938
 20
341.9389246173259
 30
0.0
  0
VERTEX
  5
209
  8
PROFILEEDGES
 10
440.2011764407345
 20
342.0070713513802
 30
0.0
  0
VERTEX
  5
20A
  8
PROFILEEDGES
 10
439.6835506052755
 20
341.9389246173262
 30
0.0
  0
VERTEX
  5
20B
  8
PROFILEEDGES
 10
439.2012001150854
 20
341.739128502472
 30
0.0
  0
VERTEX
  5
20C
  8
PROFILEEDGES
 10
438.78699635895
 20
341.4212987818665
 30
0.0
  0
VERTEX
  5
20D
  8
PROFILEEDGES
 10
438.4691666383445
 20
341.0070950257317
 30
0.0
  0
VERTEX
  5
20E
  8
PROFILEEDGES
 10
438.2693705234906
 20
340.5247445355418
 30
0.0
  0
VERTEX
  5
20F
  8
PROFILEEDGES
 10
438.2012237894374
 20
340.0071187000823
 30
0.0
  0
VERTEX
  5
210
  8
PROFILEEDGES
 10
438.2012237894374
 20
337.7071731510899
 30
0.0
  0
VERTEX
  5
211
  8
PROFILEEDGES
 10
430.201413184246
 20
337.7071731510899
 30
0.0
  0
VERTEX
  5
212
  8
PROFILEEDGES
 10
430.201413184246
 20
340.0071187000822
 30
0.0
  0
VERTEX
  5
213
  8
PROFILEEDGES
 10
430.133266450191
 20
340.5247445355411
 30
0.0
  0
VERTEX
  5
214
  8
PROFILEEDGES
 10
429.9334703353373
 20
341.007095025731
 30
0.0
  0
VERTEX
  5
215
  8
PROFILEEDGES
 10
429.6156406147326
 20
341.4212987818671
 30
0.0
  0
VERTEX
  5
216
  8
PROFILEEDGES
 10
429.201436858597
 20
341.739128502472
 30
0.0
  0
VERTEX
  5
217
  8
PROFILEEDGES
 10
428.7190863684072
 20
341.9389246173258
 30
0.0
  0
VERTEX
  5
218
  8
PROFILEEDGES
 10
428.2014605329484
 20
342.00707135138
 30
0.0
  0
VERTEX
  5
219
  8
PROFILEEDGES
 10
427.6838346974889
 20
341.9389246173261
 30
0.0
  0
VERTEX
  5
21A
  8
PROFILEEDGES
 10
427.2014842072993
 20
341.739128502472
 30
0.0
  0
VERTEX
  5
21B
  8
PROFILEEDGES
 10
426.7872804511637
 20
341.4212987818664
 30
0.0
  0
VERTEX
  5
21C
  8
PROFILEEDGES
 10
426.4694507305588
 20
341.007095025731
 30
0.0
  0
VERTEX
  5
21D
  8
PROFILEEDGES
 10
426.2696546157042
 20
340.5247445355419
 30
0.0
  0
VERTEX
  5
21E
  8
PROFILEEDGES
 10
426.2015078816508
 20
340.0071187000822
 30
0.0
  0
VERTEX
  5
21F
  8
PROFILEEDGES
 10
426.2015078816508
 20
337.7071731510898
 30
0.0
  0
VERTEX
  5
220
  8
PROFILEEDGES
 10
424.0015599652219
 20
337.7071731510898
 30
0.0
  0
VERTEX
  5
221
  8
PROFILEEDGES
 10
424.0015599652219
 20
297.3081295948765
 30
0.0
  0
VERTEX
  5
222
  8
PROFILEEDGES
 10
426.2015078816503
 20
297.3081295948765
 30
0.0
  0
SEQEND
  5
305
  8
PROFILEEDGES
  0
POLYLINE
  5
83
  8
PROFILEEDGES
 66
     1
 10
0.0
 20
0.0
 30
0.0
 70
     1
  0
VERTEX
  5
223
  8
PROFILEEDGES
 10
591.9652726217341
 20
109.1704145498527
 30
0.0
  0
VERTEX
  5
224
  8
PROFILEEDGES
 10
591.9652726217341
 20
121.3701257227684
 30
0.0
  0
VERTEX
  5
225
  8
PROFILEEDGES
 10
597.6651376779319
 20
121.3701257227684
 30
0.0
  0
VERTEX
  5
226
  8
PROFILEEDGES
 10
597.6651376779319
 20
109.1704145498527
 30
0.0
  0
SEQEND
  5
306
  8
PROFILEEDGES
  0
POLYLINE
  5
84
  8
PROFILEEDGES
 66
     1
 10
0.0
 20
0.0
 30
0.0
 70
     1
  0
VERTEX
  5
227
  8
PROFILEEDGES
 10
455.1135034040599
 20
185.5663301326522
 30
0.0
  0
VERTEX
  5
228
  8
PROFILEEDGES
 10
455.1135034040599
 20
195.5660933891404
 30
0.0
  0
VERTEX
  5
229
  8
PROFILEEDGES
 10
460.813368460258
 20
195.5660933891406
 30
0.0
  0
VERTEX
  5
22A
  8
PROFILEEDGES
 10
460.813368460258
 20
185.5663301326522
 30
0.0
  0
SEQEND
  5
307
  8
PROFILEEDGES
  0
POLYLINE
  5
85
  8
PROFILEEDGES
 66
     1
 10
0.0
 20
0.0
 30
0.0
 70
     1
  0
VERTEX
  5
22B
  8
PROFILEEDGES
 10
591.9652726217341
 20
43.33638444731571
 30
0.0
  0
VERTEX
  5
22C
  8
PROFILEEDGES
 10
591.9652726217341
 20
55.53609562023155
 30
0.0
  0
VERTEX
  5
22D
  8
PROFILEEDGES
 10
597.6651376779319
 20
55.53609562023155
 30
0.0
  0
VERTEX
  5
22E
  8
PROFILEEDGES
 10
597.6651376779319
 20
43.33638444731571
 30
0.0
  0
SEQEND
  5
308
  8
PROFILEEDGES
  0
POLYLINE
  5
86
  8
PROFILEEDGES
 66
     1
 10
0.0
 20
0.0
 30
0.0
 70
     1
  0
VERTEX
  5
22F
  8
PROFILEEDGES
 10
577.7106009286083
 20
16.51922498250462
 30
0.0
  0
VERTEX
  5
230
  8
PROFILEEDGES
 10
577.7106009286081
 20
16.71922024763472
 30
0.0
  0
VERTEX
  5
231
  8
PROFILEEDGES
 10
415.848803992349
 20
16.71922024763347
 30
0.0
  0
VERTEX
  5
232
  8
PROFILEEDGES
 10
415.848803992349
 20
344.7114550604529
 30
0.0
  0
VERTEX
  5
233
  8
PROFILEEDGES
 10
613.5834006432419
 20
344.7114550604507
 30
0.0
  0
VERTEX
  5
234
  8
PROFILEEDGES
 10
613.5834006432424
 20
16.51922498250553
 30
0.0
  0
SEQEND
  5
309
  8
PROFILEEDGES
  0
POLYLINE
  5
87
  8
PROFILEEDGES
 66
     1
 10
0.0
 20
0.0
 30
0.0
 70
     1
  0
VERTEX
  5
235
  8
PROFILEEDGES
 10
431.7590563185334
 20
109.1704145498528
 30
0.0
  0
VERTEX
  5
236
  8
PROFILEEDGES
 10
431.7590563185334
 20
121.3701257227685
 30
0.0
  0
VERTEX
  5
237
  8
PROFILEEDGES
 10
437.4589213747316
 20
121.3701257227685
 30
0.0
  0
VERTEX
  5
238
  8
PROFILEEDGES
 10
437.4589213747316
 20
109.1704145498528
 30
0.0
  0
SEQEND
  5
30A
  8
PROFILEEDGES
  0
POLYLINE
  5
88
  8
PROFILEEDGES
 66
     1
 10
0.0
 20
0.0
 30
0.0
 70
     1
  0
VERTEX
  5
239
  8
PROFILEEDGES
 10
356.7434666373901
 20
139.2575818968066
 30
0.0
  0
VERTEX
  5
23A
  8
PROFILEEDGES
 10
366.7432298938784
 20
139.257581896807
 30
0.0
  0
VERTEX
  5
23B
  8
PROFILEEDGES
 10
366.7432298938788
 20
144.9574469530055
 30
0.0
  0
VERTEX
  5
23C
  8
PROFILEEDGES
 10
356.7434666373904
 20
144.9574469530048
 30
0.0
  0
SEQEND
  5
30B
  8
PROFILEEDGES
  0
POLYLINE
  5
89
  8
PROFILEEDGES
 66
     1
 10
0.0
 20
0.0
 30
0.0
 70
     1
  0
VERTEX
  5
23D
  8
PROFILEEDGES
 10
431.7590563185334
 20
43.33638444731525
 30
0.0
  0
VERTEX
  5
23E
  8
PROFILEEDGES
 10
431.7590563185334
 20
55.53609562023121
 30
0.0
  0
VERTEX
  5
23F
  8
PROFILEEDGES
 10
437.4589213747316
 20
55.53609562023121
 30
0.0
  0
VERTEX
  5
240
  8
PROFILEEDGES
 10
437.4589213747316
 20
43.33638444731525
 30
0.0
  0
SEQEND
  5
30C
  8
PROFILEEDGES
  0
POLYLINE
  5
8A
  8
PROFILEEDGES
 66
     1
 10
0.0
 20
0.0
 30
0.0
 70
     1
  0
VERTEX
  5
241
  8
PROFILEEDGES
 10
455.113503404061
 20
21.71910187587812
 30
0.0
  0
VERTEX
  5
242
  8
PROFILEEDGES
 10
455.1135034040606
 20
31.71886513236632
 30
0.0
  0
VERTEX
  5
243
  8
PROFILEEDGES
 10
460.813368460259
 20
31.71886513236655
 30
0.0
  0
VERTEX
  5
244
  8
PROFILEEDGES
 10
460.813368460259
 20
21.71910187587812
 30
0.0
  0
SEQEND
  5
30D
  8
PROFILEEDGES
  0
POLYLINE
  5
8B
  8
PROFILEEDGES
 66
     1
 10
0.0
 20
0.0
 30
0.0
 70
     1
  0
VERTEX
  5
245
  8
PROFILEEDGES
 10
192.8962383806167
 20
139.2575818968065
 30
0.0
  0
VERTEX
  5
246
  8
PROFILEEDGES
 10
202.8960016371048
 20
139.2575818968079
 30
0.0
  0
VERTEX
  5
247
  8
PROFILEEDGES
 10
202.8960016371056
 20
144.9574469530064
 30
0.0
  0
VERTEX
  5
248
  8
PROFILEEDGES
 10
192.8962383806174
 20
144.957446953005
 30
0.0
  0
SEQEND
  5
30E
  8
PROFILEEDGES
  0
POLYLINE
  5
8C
  8
PROFILEEDGES
 66
     1
 10
0.0
 20
0.0
 30
0.0
 70
     1
  0
VERTEX
  5
249
  8
PROFILEEDGES
 10
10.01886787926389
 20
265.9477766079257
 30
0.0
  0
VERTEX
  5
24A
  8
PROFILEEDGES
 10
10.01886787926399
 20
270.846797727971
 30
0.0
  0
VERTEX
  5
24B
  8
PROFILEEDGES
 10
15.16177756618197
 20
270.8467977279706
 30
0.0
  0
VERTEX
  5
24C
  8
PROFILEEDGES
 10
18.03482428162633
 20
271.225041503744
 30
0.0
  0
VERTEX
  5
24D
  8
PROFILEEDGES
 10
20.71207761134775
 20
272.3339961428229
 30
0.0
  0
VERTEX
  5
24E
  8
PROFILEEDGES
 10
23.01108716529558
 20
274.0980882191885
 30
0.0
  0
VERTEX
  5
24F
  8
PROFILEEDGES
 10
24.77517924166062
 20
276.3970977731358
 30
0.0
  0
VERTEX
  5
250
  8
PROFILEEDGES
 10
25.88413388074056
 20
279.0743511028571
 30
0.0
  0
VERTEX
  5
251
  8
PROFILEEDGES
 10
26.26237765651366
 20
281.9473978183015
 30
0.0
  0
VERTEX
  5
252
  8
PROFILEEDGES
 10
25.88413388074032
 20
284.8204445337461
 30
0.0
  0
VERTEX
  5
253
  8
PROFILEEDGES
 10
24.77517924166048
 20
287.4976978634683
 30
0.0
  0
VERTEX
  5
254
  8
PROFILEEDGES
 10
23.01108716529548
 20
289.7967074174157
 30
0.0
  0
VERTEX
  5
255
  8
PROFILEEDGES
 10
20.71207761134737
 20
291.5607994937812
 30
0.0
  0
VERTEX
  5
256
  8
PROFILEEDGES
 10
18.03482428162607
 20
292.6697541328606
 30
0.0
  0
VERTEX
  5
257
  8
PROFILEEDGES
 10
15.16177756618148
 20
293.0479979086343
 30
0.0
  0
VERTEX
  5
258
  8
PROFILEEDGES
 10
10.01886787926365
 20
293.0479979086343
 30
0.0
  0
VERTEX
  5
259
  8
PROFILEEDGES
 10
10.01886787926399
 20
339.6155333058591
 30
0.0
  0
VERTEX
  5
25A
  8
PROFILEEDGES
 10
11.02077088250884
 20
339.9194572591899
 30
0.0
  0
VERTEX
  5
25B
  8
PROFILEEDGES
 10
12.04040631211237
 20
340.157202896409
 30
0.0
  0
VERTEX
  5
25C
  8
PROFILEEDGES
 10
13.07340793262739
 20
340.3277521542002
 30
0.0
  0
VERTEX
  5
25D
  8
PROFILEEDGES
 10
14.11535227252617
 20
340.4303747144569
 30
0.0
  0
VERTEX
  5
25E
  8
PROFILEEDGES
 10
15.16177756618183
 20
340.4646311316213
 30
0.0
  0
VERTEX
  5
25F
  8
PROFILEEDGES
 10
40.3611809725322
 20
340.4646311316209
 30
0.0
  0
VERTEX
  5
260
  8
PROFILEEDGES
 10
40.3611809725322
 20
345.4645127598656
 30
0.0
  0
VERTEX
  5
261
  8
PROFILEEDGES
 10
49.96095369876087
 20
345.4645127598659
 30
0.0
  0
VERTEX
  5
262
  8
PROFILEEDGES
 10
49.96095369876102
 20
340.4646311316211
 30
0.0
  0
VERTEX
  5
263
  8
PROFILEEDGES
 10
184.5066610155982
 20
340.4646311316211
 30
0.0
  0
VERTEX
  5
264
  8
PROFILEEDGES
 10
184.5066610155982
 20
345.4645127598659
 30
0.0
  0
VERTEX
  5
265
  8
PROFILEEDGES
 10
194.1064337418271
 20
345.4645127598658
 30
0.0
  0
VERTEX
  5
266
  8
PROFILEEDGES
 10
194.1064337418271
 20
340.4646311316211
 30
0.0
  0
VERTEX
  5
267
  8
PROFILEEDGES
 10
348.3538892723699
 20
340.4646311316209
 30
0.0
  0
VERTEX
  5
268
  8
PROFILEEDGES
 10
348.3538892723699
 20
345.4645127598656
 30
0.0
  0
VERTEX
  5
269
  8
PROFILEEDGES
 10
357.9536619985986
 20
345.4645127598652
 30
0.0
  0
VERTEX
  5
26A
  8
PROFILEEDGES
 10
357.9536619985985
 20
340.4646311316209
 30
0.0
  0
VERTEX
  5
26B
  8
PROFILEEDGES
 10
383.1530654049491
 20
340.4646311316211
 30
0.0
  0
VERTEX
  5
26C
  8
PROFILEEDGES
 10
384.1994906986051
 20
340.4303747144569
 30
0.0
  0
VERTEX
  5
26D
  8
PROFILEEDGES
 10
385.2414350385032
 20
340.3277521541996
 30
0.0
  0
VERTEX
  5
26E
  8
PROFILEEDGES
 10
386.2744366590185
 20
340.1572028964093
 30
0.0
  0
VERTEX
  5
26F
  8
PROFILEEDGES
 10
387.294072088622
 20
339.9194572591896
 30
0.0
  0
VERTEX
  5
270
  8
PROFILEEDGES
 10
388.295975091867
 20
339.615533305859
 30
0.0
  0
VERTEX
  5
271
  8
PROFILEEDGES
 10
388.9094592031583
 20
339.3846342363875
 30
0.0
  0
VERTEX
  5
272
  8
PROFILEEDGES
 10
388.9094592031583
 20
339.246732485445
 30
0.0
  0
VERTEX
  5
273
  8
PROFILEEDGES
 10
401.1816326605356
 20
339.246732485444
 30
0.0
  0
VERTEX
  5
274
  8
PROFILEEDGES
 10
401.1816326605357
 20
293.0479979086332
 30
0.0
  0
VERTEX
  5
275
  8
PROFILEEDGES
 10
383.1530654049496
 20
293.0479979086343
 30
0.0
  0
VERTEX
  5
276
  8
PROFILEEDGES
 10
380.2800186895049
 20
292.6697541328604
 30
0.0
  0
VERTEX
  5
277
  8
PROFILEEDGES
 10
377.6027653597836
 20
291.5607994937816
 30
0.0
  0
VERTEX
  5
278
  8
PROFILEEDGES
 10
375.3037558058359
 20
289.7967074174155
 30
0.0
  0
VERTEX
  5
279
  8
PROFILEEDGES
 10
373.5396637294704
 20
287.4976978634684
 30
0.0
  0
VERTEX
  5
27A
  8
PROFILEEDGES
 10
372.4307090903916
 20
284.820444533746
 30
0.0
  0
VERTEX
  5
27B
  8
PROFILEEDGES
 10
372.0524653146172
 20
281.9473978183015
 30
0.0
  0
VERTEX
  5
27C
  8
PROFILEEDGES
 10
372.4307090903914
 20
279.0743511028569
 30
0.0
  0
VERTEX
  5
27D
  8
PROFILEEDGES
 10
373.5396637294703
 20
276.3970977731358
 30
0.0
  0
VERTEX
  5
27E
  8
PROFILEEDGES
 10
375.3037558058357
 20
274.098088219188
 30
0.0
  0
VERTEX
  5
27F
  8
PROFILEEDGES
 10
377.6027653597836
 20
272.3339961428227
 30
0.0
  0
VERTEX
  5
280
  8
PROFILEEDGES
 10
380.2800186895046
 20
271.2250415037438
 30
0.0
  0
VERTEX
  5
281
  8
PROFILEEDGES
 10
383.1530654049494
 20
270.8467977279706
 30
0.0
  0
VERTEX
  5
282
  8
PROFILEEDGES
 10
388.909459203158
 20
270.8467977279703
 30
0.0
  0
VERTEX
  5
283
  8
PROFILEEDGES
 10
388.9094592031581
 20
267.0277735031547
 30
0.0
  0
VERTEX
  5
284
  8
PROFILEEDGES
 10
388.295975091867
 20
266.7968744336831
 30
0.0
  0
VERTEX
  5
285
  8
PROFILEEDGES
 10
387.2940720886218
 20
266.4929504803525
 30
0.0
  0
VERTEX
  5
286
  8
PROFILEEDGES
 10
386.2744366590181
 20
266.2552048431327
 30
0.0
  0
VERTEX
  5
287
  8
PROFILEEDGES
 10
385.2414350385031
 20
266.0846555853421
 30
0.0
  0
VERTEX
  5
288
  8
PROFILEEDGES
 10
384.1994906986047
 20
265.9820330250857
 30
0.0
  0
VERTEX
  5
289
  8
PROFILEEDGES
 10
383.153065404949
 20
265.9477766079206
 30
0.0
  0
VERTEX
  5
28A
  8
PROFILEEDGES
 10
363.353534157102
 20
265.9477766079204
 30
0.0
  0
VERTEX
  5
28B
  8
PROFILEEDGES
 10
363.3535341571025
 20
270.9476582361641
 30
0.0
  0
VERTEX
  5
28C
  8
PROFILEEDGES
 10
357.9536619985986
 20
270.9476582361648
 30
0.0
  0
VERTEX
  5
28D
  8
PROFILEEDGES
 10
357.9536619985985
 20
265.9477766079204
 30
0.0
  0
VERTEX
  5
28E
  8
PROFILEEDGES
 10
348.3538892723698
 20
265.9477766079208
 30
0.0
  0
VERTEX
  5
28F
  8
PROFILEEDGES
 10
348.3538892723701
 20
270.9476582361643
 30
0.0
  0
VERTEX
  5
290
  8
PROFILEEDGES
 10
194.1064337418271
 20
270.9476582361646
 30
0.0
  0
VERTEX
  5
291
  8
PROFILEEDGES
 10
194.1064337418271
 20
265.9477766079208
 30
0.0
  0
VERTEX
  5
292
  8
PROFILEEDGES
 10
184.5066610155984
 20
265.947776607921
 30
0.0
  0
VERTEX
  5
293
  8
PROFILEEDGES
 10
184.5066610155983
 20
270.9476582361654
 30
0.0
  0
VERTEX
  5
294
  8
PROFILEEDGES
 10
49.96095369876102
 20
270.9476582361648
 30
0.0
  0
VERTEX
  5
295
  8
PROFILEEDGES
 10
49.96095369876113
 20
265.947776607921
 30
0.0
  0
VERTEX
  5
296
  8
PROFILEEDGES
 10
40.3611809725322
 20
265.9477766079203
 30
0.0
  0
VERTEX
  5
297
  8
PROFILEEDGES
 10
40.3611809725323
 20
270.9476582361643
 30
0.0
  0
VERTEX
  5
298
  8
PROFILEEDGES
 10
34.96130881402942
 20
270.9476582361648
 30
0.0
  0
VERTEX
  5
299
  8
PROFILEEDGES
 10
34.96130881402831
 20
265.9477766079256
 30
0.0
  0
SEQEND
  5
30F
  8
PROFILEEDGES
  0
POLYLINE
  5
8D
  8
PROFILEEDGES
 66
     1
 10
0.0
 20
0.0
 30
0.0
 70
     1
  0
VERTEX
  5
29A
  8
PROFILEEDGES
 10
48.75075833755153
 20
139.2575818968065
 30
0.0
  0
VERTEX
  5
29B
  8
PROFILEEDGES
 10
58.75052159403884
 20
139.2575818968066
 30
0.0
  0
VERTEX
  5
29C
  8
PROFILEEDGES
 10
58.75052159403958
 20
144.9574469530048
 30
0.0
  0
VERTEX
  5
29D
  8
PROFILEEDGES
 10
48.75075833755153
 20
144.9574469530046
 30
0.0
  0
SEQEND
  5
310
  8
PROFILEEDGES
  0
POLYLINE
  5
8E
  8
PROFILEEDGES
 66
     1
 10
0.0
 20
0.0
 30
0.0
 70
     1
  0
VERTEX
  5
29E
  8
PROFILEEDGES
 10
7.222123709068796
 20
163.9763290725427
 30
0.0
  0
VERTEX
  5
29F
  8
PROFILEEDGES
 10
7.222123709068924
 20
168.875350192588
 30
0.0
  0
VERTEX
  5
2A0
  8
PROFILEEDGES
 10
12.36503339598687
 20
168.8753501925879
 30
0.0
  0
VERTEX
  5
2A1
  8
PROFILEEDGES
 10
15.23808011143126
 20
169.2535939683611
 30
0.0
  0
VERTEX
  5
2A2
  8
PROFILEEDGES
 10
17.91533344115268
 20
170.3625486074401
 30
0.0
  0
VERTEX
  5
2A3
  8
PROFILEEDGES
 10
20.21434299510051
 20
172.1266406838057
 30
0.0
  0
VERTEX
  5
2A4
  8
PROFILEEDGES
 10
21.97843507146553
 20
174.4256502377531
 30
0.0
  0
VERTEX
  5
2A5
  8
PROFILEEDGES
 10
23.08738971054535
 20
177.1029035674743
 30
0.0
  0
VERTEX
  5
2A6
  8
PROFILEEDGES
 10
23.46563348631857
 20
179.9759502829187
 30
0.0
  0
VERTEX
  5
2A7
  8
PROFILEEDGES
 10
23.08738971054535
 20
182.8489969983634
 30
0.0
  0
VERTEX
  5
2A8
  8
PROFILEEDGES
 10
21.97843507146541
 20
185.5262503280854
 30
0.0
  0
VERTEX
  5
2A9
  8
PROFILEEDGES
 10
20.21434299510038
 20
187.8252598820327
 30
0.0
  0
VERTEX
  5
2AA
  8
PROFILEEDGES
 10
17.91533344115244
 20
189.5893519583983
 30
0.0
  0
VERTEX
  5
2AB
  8
PROFILEEDGES
 10
15.2380801114309
 20
190.6983065974774
 30
0.0
  0
VERTEX
  5
2AC
  8
PROFILEEDGES
 10
12.36503339598639
 20
191.0765503732513
 30
0.0
  0
VERTEX
  5
2AD
  8
PROFILEEDGES
 10
7.222123709068541
 20
191.0765503732513
 30
0.0
  0
VERTEX
  5
2AE
  8
PROFILEEDGES
 10
7.222123709068924
 20
237.6440857704762
 30
0.0
  0
VERTEX
  5
2AF
  8
PROFILEEDGES
 10
8.22402671231373
 20
237.9480097238071
 30
0.0
  0
VERTEX
  5
2B0
  8
PROFILEEDGES
 10
9.243662141917298
 20
238.1857553610262
 30
0.0
  0
VERTEX
  5
2B1
  8
PROFILEEDGES
 10
10.27666376243232
 20
238.3563046188174
 30
0.0
  0
VERTEX
  5
2B2
  8
PROFILEEDGES
 10
11.3186081023311
 20
238.4589271790741
 30
0.0
  0
VERTEX
  5
2B3
  8
PROFILEEDGES
 10
12.36503339598676
 20
238.4931835962384
 30
0.0
  0
VERTEX
  5
2B4
  8
PROFILEEDGES
 10
37.56443680233723
 20
238.4931835962378
 30
0.0
  0
VERTEX
  5
2B5
  8
PROFILEEDGES
 10
37.56443680233723
 20
243.4930652244825
 30
0.0
  0
VERTEX
  5
2B6
  8
PROFILEEDGES
 10
47.16420952856592
 20
243.4930652244828
 30
0.0
  0
VERTEX
  5
2B7
  8
PROFILEEDGES
 10
47.16420952856592
 20
238.4931835962382
 30
0.0
  0
VERTEX
  5
2B8
  8
PROFILEEDGES
 10
181.7099168454032
 20
238.4931835962382
 30
0.0
  0
VERTEX
  5
2B9
  8
PROFILEEDGES
 10
181.7099168454032
 20
243.4930652244828
 30
0.0
  0
VERTEX
  5
2BA
  8
PROFILEEDGES
 10
191.309689571632
 20
243.4930652244827
 30
0.0
  0
VERTEX
  5
2BB
  8
PROFILEEDGES
 10
191.3096895716313
 20
238.4931835962383
 30
0.0
  0
VERTEX
  5
2BC
  8
PROFILEEDGES
 10
345.5571451021739
 20
238.4931835962378
 30
0.0
  0
VERTEX
  5
2BD
  8
PROFILEEDGES
 10
345.5571451021739
 20
243.4930652244825
 30
0.0
  0
VERTEX
  5
2BE
  8
PROFILEEDGES
 10
355.1569178284026
 20
243.4930652244823
 30
0.0
  0
VERTEX
  5
2BF
  8
PROFILEEDGES
 10
355.1569178284025
 20
238.4931835962379
 30
0.0
  0
VERTEX
  5
2C0
  8
PROFILEEDGES
 10
380.3563212347531
 20
238.4931835962382
 30
0.0
  0
VERTEX
  5
2C1
  8
PROFILEEDGES
 10
381.402746528409
 20
238.4589271790741
 30
0.0
  0
VERTEX
  5
2C2
  8
PROFILEEDGES
 10
382.4446908683072
 20
238.3563046188168
 30
0.0
  0
VERTEX
  5
2C3
  8
PROFILEEDGES
 10
383.4776924888225
 20
238.1857553610265
 30
0.0
  0
VERTEX
  5
2C4
  8
PROFILEEDGES
 10
384.4973279184259
 20
237.9480097238068
 30
0.0
  0
VERTEX
  5
2C5
  8
PROFILEEDGES
 10
385.499230921671
 20
237.6440857704762
 30
0.0
  0
VERTEX
  5
2C6
  8
PROFILEEDGES
 10
386.1127150329624
 20
237.4131867010045
 30
0.0
  0
VERTEX
  5
2C7
  8
PROFILEEDGES
 10
386.1127150329624
 20
237.2752849500622
 30
0.0
  0
VERTEX
  5
2C8
  8
PROFILEEDGES
 10
398.3848884903396
 20
237.2752849500611
 30
0.0
  0
VERTEX
  5
2C9
  8
PROFILEEDGES
 10
398.3848884903398
 20
191.0765503732503
 30
0.0
  0
VERTEX
  5
2CA
  8
PROFILEEDGES
 10
380.3563212347537
 20
191.0765503732512
 30
0.0
  0
VERTEX
  5
2CB
  8
PROFILEEDGES
 10
377.483274519309
 20
190.6983065974773
 30
0.0
  0
VERTEX
  5
2CC
  8
PROFILEEDGES
 10
374.8060211895875
 20
189.5893519583985
 30
0.0
  0
VERTEX
  5
2CD
  8
PROFILEEDGES
 10
372.5070116356398
 20
187.8252598820326
 30
0.0
  0
VERTEX
  5
2CE
  8
PROFILEEDGES
 10
370.7429195592745
 20
185.5262503280854
 30
0.0
  0
VERTEX
  5
2CF
  8
PROFILEEDGES
 10
369.6339649201956
 20
182.8489969983632
 30
0.0
  0
VERTEX
  5
2D0
  8
PROFILEEDGES
 10
369.2557211444213
 20
179.9759502829187
 30
0.0
  0
VERTEX
  5
2D1
  8
PROFILEEDGES
 10
369.6339649201954
 20
177.1029035674741
 30
0.0
  0
VERTEX
  5
2D2
  8
PROFILEEDGES
 10
370.7429195592744
 20
174.4256502377531
 30
0.0
  0
VERTEX
  5
2D3
  8
PROFILEEDGES
 10
372.5070116356397
 20
172.1266406838051
 30
0.0
  0
VERTEX
  5
2D4
  8
PROFILEEDGES
 10
374.8060211895875
 20
170.36254860744
 30
0.0
  0
VERTEX
  5
2D5
  8
PROFILEEDGES
 10
377.4832745193085
 20
169.2535939683611
 30
0.0
  0
VERTEX
  5
2D6
  8
PROFILEEDGES
 10
380.3563212347535
 20
168.8753501925879
 30
0.0
  0
VERTEX
  5
2D7
  8
PROFILEEDGES
 10
386.1127150329621
 20
168.8753501925876
 30
0.0
  0
VERTEX
  5
2D8
  8
PROFILEEDGES
 10
386.1127150329622
 20
165.056325967772
 30
0.0
  0
VERTEX
  5
2D9
  8
PROFILEEDGES
 10
385.499230921671
 20
164.8254268983003
 30
0.0
  0
VERTEX
  5
2DA
  8
PROFILEEDGES
 10
384.4973279184258
 20
164.5215029449696
 30
0.0
  0
VERTEX
  5
2DB
  8
PROFILEEDGES
 10
383.4776924888221
 20
164.2837573077499
 30
0.0
  0
VERTEX
  5
2DC
  8
PROFILEEDGES
 10
382.4446908683072
 20
164.1132080499594
 30
0.0
  0
VERTEX
  5
2DD
  8
PROFILEEDGES
 10
381.4027465284087
 20
164.0105854897027
 30
0.0
  0
VERTEX
  5
2DE
  8
PROFILEEDGES
 10
380.3563212347531
 20
163.9763290725377
 30
0.0
  0
VERTEX
  5
2DF
  8
PROFILEEDGES
 10
360.556789986906
 20
163.9763290725376
 30
0.0
  0
VERTEX
  5
2E0
  8
PROFILEEDGES
 10
360.5567899869066
 20
168.9762107007813
 30
0.0
  0
VERTEX
  5
2E1
  8
PROFILEEDGES
 10
355.1569178284028
 20
168.9762107007821
 30
0.0
  0
VERTEX
  5
2E2
  8
PROFILEEDGES
 10
355.1569178284025
 20
163.9763290725376
 30
0.0
  0
VERTEX
  5
2E3
  8
PROFILEEDGES
 10
345.5571451021739
 20
163.9763290725377
 30
0.0
  0
VERTEX
  5
2E4
  8
PROFILEEDGES
 10
345.557145102174
 20
168.9762107007814
 30
0.0
  0
VERTEX
  5
2E5
  8
PROFILEEDGES
 10
191.3096895716321
 20
168.9762107007816
 30
0.0
  0
VERTEX
  5
2E6
  8
PROFILEEDGES
 10
191.309689571632
 20
163.9763290725377
 30
0.0
  0
VERTEX
  5
2E7
  8
PROFILEEDGES
 10
181.7099168454033
 20
163.976329072538
 30
0.0
  0
VERTEX
  5
2E8
  8
PROFILEEDGES
 10
181.7099168454033
 20
168.9762107007825
 30
0.0
  0
VERTEX
  5
2E9
  8
PROFILEEDGES
 10
47.16420952856592
 20
168.9762107007817
 30
0.0
  0
VERTEX
  5
2EA
  8
PROFILEEDGES
 10
47.16420952856606
 20
163.976329072538
 30
0.0
  0
VERTEX
  5
2EB
  8
PROFILEEDGES
 10
37.5644368023371
 20
163.9763290725374
 30
0.0
  0
VERTEX
  5
2EC
  8
PROFILEEDGES
 10
37.56443680233723
 20
168.9762107007814
 30
0.0
  0
VERTEX
  5
2ED
  8
PROFILEEDGES
 10
32.16456464383435
 20
168.976210700782
 30
0.0
  0
VERTEX
  5
2EE
  8
PROFILEEDGES
 10
32.16456464383326
 20
163.9763290725427
 30
0.0
  0
SEQEND
  5
311
  8
PROFILEEDGES
  0
POLYLINE
  5
8F
  8
PROFILEEDGES
 66
     1
 10
0.0
 20
0.0
 30
0.0
 70
     1
  0
VERTEX
  5
2EF
  8
PROFILEEDGES
 10
18.60844050941216
 20
22.36034942845987
 30
0.0
  0
VERTEX
  5
2F0
  8
PROFILEEDGES
 10
18.60844050941289
 20
148.3573664602125
 30
0.0
  0
VERTEX
  5
2F1
  8
PROFILEEDGES
 10
397.499031833308
 20
148.3573664602106
 30
0.0
  0
VERTEX
  5
2F2
  8
PROFILEEDGES
 10
397.4990318333083
 20
22.36034942845842
 30
0.0
  0
SEQEND
  5
312
  8
PROFILEEDGES
  0
ENDSEC
  0
EOF
